<svg width="81" height="84" viewBox="0 0 81 84" fill="none" xmlns="http://www.w3.org/2000/svg">
<path d="M40 32H48V20H60V12H48V0H40V12H28V20H40V32ZM24 68C19.6 68 16.04 71.6 16.04 76C16.04 80.4 19.6 84 24 84C28.4 84 32 80.4 32 76C32 71.6 28.4 68 24 68ZM64 68C59.6 68 56.04 71.6 56.04 76C56.04 80.4 59.6 84 64 84C68.4 84 72 80.4 72 76C72 71.6 68.4 68 64 68ZM24.68 55L24.8 54.52L28.4 48H58.2C61.2 48 63.84 46.36 65.2 43.88L80.64 15.84L73.68 12H73.64L69.24 20L58.2 40H30.12L29.6 38.92L20.64 20L16.84 12L13.08 4H0V12H8L22.4 42.36L17 52.16C16.36 53.28 16 54.6 16 56C16 60.4 19.6 64 24 64H72V56H25.68C25.16 56 24.68 55.56 24.68 55Z" fill="white"/>
</svg>
